<svg width="540" height="808" viewBox="0 0 540 808" fill="none" xmlns="http://www.w3.org/2000/svg">
<g filter="url(#filter0_d_331_33)">
<path d="M62.6633 386.424C62.6633 386.424 38.0495 377.94 42.02 404.415C46.0234 430.841 61.0982 452.309 37.2751 462.638C13.4521 472.952 -8.77289 487.829 12.6613 497.072C26.6981 503.118 45.9905 509.724 60.8016 520.664C62.4327 479.822 79.8634 441.451 96.7339 413.51L62.6633 386.424Z" fill="#030104"/>
<path d="M511.38 665.975C500.227 666.172 489.452 664.492 481.527 662.877C473.636 661.23 468.529 659.632 468.529 659.632C468.529 659.632 490.21 661.493 510.211 656.518C520.145 654.244 529.388 649.928 533.391 645.71C534.33 644.656 535.121 643.75 535.434 642.942C535.549 642.811 535.483 642.811 535.533 642.712C535.137 632.201 534.067 620.767 532.007 608.757C525.45 610.618 518.316 611.541 511.347 611.623C500.177 611.821 489.419 610.14 481.511 608.526C473.603 606.878 468.512 605.28 468.512 605.28C468.512 605.28 490.177 607.142 510.178 602.166C517.46 600.486 524.346 597.718 529.108 594.703C523.951 572.956 515.219 550.418 500.54 530.154C494.378 521.636 490.309 504.601 486.239 492.063C451.263 453.297 397.175 380.411 406.516 308.563C407.834 298.464 409.366 288.381 410.882 278.298C413.617 260.307 416.418 241.707 417.917 223.436C420.536 191.211 412.81 171.259 395.56 141.241L394.357 139.116C387.306 126.892 378.525 111.438 375.049 95.7535C374.142 96.8409 373.187 97.9282 372.281 98.9991C367.717 103.76 362.593 107.714 358.672 110.433C354.619 112.97 351.917 114.667 351.917 114.667C351.917 114.667 354.257 112.509 357.733 109.28C361.061 105.919 365.196 101.19 368.541 96.0501C370.04 93.3976 371.671 90.8439 372.511 88.2573C373.055 87.137 373.335 86.0332 373.549 84.9953C373.5 83.842 373.665 82.7052 373.698 81.5684C361.654 64.3519 347.996 44.5982 340.978 33.4775C333.498 21.6319 322.097 0 301.668 0C283.068 0 256.955 17.9414 219.49 77.5485C219.49 77.5485 218.864 77.6474 218.073 77.7792C219.49 78.9489 220.907 80.1186 222.209 81.519C225.981 85.2753 229.194 89.839 232.308 94.4355C235.158 99.1804 237.876 103.991 239.854 108.769C241.995 113.464 243.28 118.127 244.565 122.048C246.872 130.005 247.267 135.541 247.267 135.541C247.267 135.541 246.378 134.454 245.043 132.444C243.841 130.384 241.699 127.616 239.689 124.19C235.488 117.468 229.903 108.505 224.301 99.5428C219.424 92.0466 214.581 84.6163 209.852 79.3608C203.246 80.7447 194.184 83.0347 184.827 86.3792C185.238 87.0711 185.617 87.6642 186.046 88.4056C189.703 94.8474 194.119 103.596 197.529 112.723C201.055 121.817 203.575 131.29 205.124 138.523C206.656 145.772 206.953 150.863 206.953 150.863C206.953 150.863 203.789 146.859 200.115 140.418C196.458 133.992 192.059 125.228 188.632 116.1C185.123 107.006 182.602 97.5328 181.054 90.3003C180.872 89.4436 180.757 88.7186 180.609 87.9114C174.151 90.4485 167.956 93.5294 162.7 97.2033C162.651 104.288 163.969 113.102 165.32 121.965C167.099 132.378 168.862 142.79 170.197 150.616C170.971 154.52 171.202 158.013 171.679 160.353C172.009 162.741 172.075 164.142 172.075 164.142C172.075 164.142 168.681 159.743 165.122 152.263C163.475 148.49 161.333 144.141 159.817 139.215C158.12 134.338 156.951 128.934 155.929 123.498C155.188 117.995 154.562 112.443 154.891 107.138C154.974 103.612 155.567 100.35 156.325 97.2528C146.538 95.4735 123.144 91.7171 98.9416 91.7171C59.4836 91.7171 18.164 101.718 31.3606 146.612C49.5656 208.509 60.7852 224.49 65.6124 239.746C66.7821 240.158 68.0837 240.521 69.5829 240.619C72.2354 241.18 75.2833 241.015 78.3312 241.015C84.4435 240.652 90.6052 239.384 95.1688 238.165C99.6995 236.748 102.714 235.792 102.714 235.792C102.714 235.792 99.8972 237.291 95.696 239.549C91.3795 241.624 85.4155 244.112 79.0232 245.727C75.7776 246.336 72.532 247.144 69.2534 247.111C68.6274 247.177 68.0342 247.078 67.4247 247.078C67.853 249.516 68.1496 252.086 68.2814 254.969C69.4676 279.979 80.1929 350.245 136.159 375.254C136.159 375.254 120.277 392.421 104.065 419.259C86.7994 447.827 69.2369 487.384 70.0607 528.852C70.6538 558.804 80.9343 589.728 107.838 618.312C107.575 617.933 107.377 617.637 107.377 617.637C107.377 617.637 108.629 618.213 110.804 619.202C116.109 621.624 121.331 623.601 126.636 625.149C126.389 624.227 126.126 623.255 125.944 622.447C125.269 619.844 124.972 618.016 124.972 618.049C124.89 617.571 125.17 617.225 125.549 617.274C125.697 617.274 125.829 617.34 125.961 617.439C125.961 617.439 127.427 618.51 129.437 620.273C130.459 621.146 131.678 622.167 132.864 623.288C134.363 624.721 135.368 625.924 136.077 627.291C139.454 627.835 142.93 628.098 146.489 628.098C146.374 627.686 146.258 627.357 146.126 626.846C145.665 625.281 145.303 623.749 145.006 622.447C144.331 619.844 144.034 618.016 144.034 618.049C143.952 617.571 144.232 617.225 144.611 617.274C144.759 617.274 144.891 617.34 145.023 617.439C145.023 617.439 146.489 618.51 148.499 620.273C149.52 621.146 150.739 622.167 151.926 623.288C153.557 624.853 154.611 626.138 155.32 627.686C158.895 627.275 162.503 626.682 165.732 625.347C167.61 624.573 169.505 623.963 171.3 623.37C174.941 622.283 177.759 620.026 179.933 619.202C182.059 618.164 183.327 617.637 183.327 617.637C183.327 617.637 182.569 618.757 181.12 620.668C171.218 633.568 155.007 640.175 138.844 637.588C134.627 636.913 129.948 635.71 126.093 633.848C121.661 631.69 118.02 628.955 114.642 625.841C111.776 640.488 99.0075 766.869 156.621 794.761C157.066 791.367 158.384 788.088 159.768 785.667C161.234 783.146 162.948 781.548 162.948 781.548C162.948 781.548 164.249 783.508 165.073 786.276C165.864 789.077 166.457 792.751 165.979 796.277C165.913 796.919 165.666 797.496 165.551 798.122C168.664 798.979 171.959 799.555 175.436 799.868C175.436 799.044 175.337 798.221 175.452 797.397C175.815 793.855 177.264 790.412 178.698 787.907C180.164 785.387 181.877 783.788 181.877 783.788C181.877 783.788 183.179 785.749 184.003 788.533C184.794 791.334 185.387 794.992 184.909 798.517C184.859 799.028 184.662 799.506 184.563 800C199.209 799.423 216.574 794.563 237.415 783.739C237.415 783.739 261.914 787.347 297.846 787.347C323.794 787.347 355.707 785.469 388.673 778.978C388.673 778.978 408.444 790.593 433.766 792.8C433.404 791.614 433.008 790.412 432.843 789.159C432.333 785.617 432.876 781.943 433.651 779.159C434.441 776.358 435.71 774.381 435.71 774.381C435.71 774.381 437.44 775.946 438.923 778.467C440.405 780.971 441.888 784.365 442.284 787.94C442.564 789.703 442.564 791.515 442.399 793.245C445.974 793.212 449.615 792.932 453.305 792.438C452.581 790.642 451.987 788.715 451.74 786.688C451.213 783.146 451.757 779.472 452.531 776.671C453.273 773.903 454.541 771.91 454.541 771.91C454.541 771.91 456.287 773.492 457.77 775.996C459.237 778.5 460.719 781.91 461.115 785.485C461.395 787.298 461.378 789.159 461.197 790.955C489.304 783.92 518.168 759.323 532.716 694.46C532.716 694.46 535.105 681.61 535.681 662.021C528.201 664.805 519.651 665.859 511.38 665.975ZM399.003 566.382C399.003 575.197 391.853 582.347 383.039 582.347C374.225 582.347 367.075 575.197 367.075 566.382C367.075 557.568 374.225 550.418 383.039 550.418C391.87 550.418 399.003 557.552 399.003 566.382ZM339.133 626.006C354.438 620.981 369.595 615.511 385.082 611.211C392.117 609.251 396.796 613.88 397.933 620.932C399.218 628.823 393.105 635.051 382.512 635.957C384.373 630.421 385.889 625.924 387.949 619.811C370.617 621.755 356.201 633.436 339.133 626.006ZM289.378 602.035C285.012 601.063 280.465 600.914 275.951 600.387C267.4 613.897 253.396 620.404 241.237 607.603C260.052 606.829 267.845 594.95 270.843 578.343C271.799 578.591 272.754 578.805 273.726 579.052C275.572 582.808 277.433 586.548 279.443 590.601C305.902 591.853 310.631 594.374 311.52 608.13C312.328 620.322 303.777 630.784 291.025 633.173C283.183 634.623 276.544 629.219 273.38 619.795C279.938 619.103 287.17 619.482 293.365 617.159C296.363 616.055 297.434 609.778 299.362 605.84C296.05 604.539 292.821 602.809 289.378 602.035ZM267.861 681.313C263.199 675.843 259.723 671.79 254.994 666.288C269.015 665.678 271.156 668.133 267.861 681.313ZM308.753 578.014C297.714 578.442 286.28 579.085 275.687 576.663C268.57 574.999 262.655 568.294 255.241 563.203C275.028 563.203 291.717 562.758 308.357 563.565C311.586 563.73 314.552 568.887 317.649 571.72C314.684 573.928 311.784 577.899 308.753 578.014ZM311.982 437.283C313.81 442.819 316.941 450.233 322.312 456.345C324.19 459.08 326.776 461.304 329.412 463.363C324.799 465.637 319.676 467.021 314.206 467.021C295.012 467.021 279.46 451.452 279.46 432.275C279.443 413.065 294.996 397.512 314.189 397.512C333.399 397.512 348.935 413.065 348.935 432.242C348.935 442.127 344.784 450.974 338.194 457.301C337.452 456.938 336.744 456.526 336.002 456.131C333.498 454.467 330.269 453.33 327.699 450.974C322.064 446.74 318.242 440.611 315.095 436.163C312.525 431.138 310.812 427.777 310.812 427.777C310.713 427.579 310.499 427.481 310.285 427.53C310.021 427.579 309.856 427.843 309.922 428.107C309.922 428.074 310.746 431.748 311.982 437.283ZM307.995 549.545C302.838 541.34 314.123 539.676 319.857 538.539C323.383 537.831 327.946 537.979 331.175 536.249C332.526 535.541 341.472 525.821 338.375 524.98C330.088 522.723 321.01 522.954 312.74 520.631C311.669 513.201 334.075 506.116 339.429 503.942C342.873 502.541 347.799 504.765 352.049 505.326C351.209 509.527 350.797 513.876 349.479 517.896C348.392 521.175 346.234 524.107 344.537 527.205C345.393 528.061 346.25 528.902 347.09 529.758C347.865 530.533 361.901 525.244 364.142 525.261C367.206 525.293 381.326 530.121 375.049 535.953C372.643 538.177 368.739 539.544 365.345 539.825C356.234 540.566 350.534 540.171 348.721 549.99C346.085 564.323 350.649 575.955 344.619 589.991C343.416 589.761 342.214 589.563 340.994 589.349C340.154 575.576 339.281 561.802 338.441 547.815C338.606 551.077 312.196 556.25 307.995 549.545ZM366.745 605.494C367.388 608.065 364.422 614.16 362.84 614.259C353.499 614.836 350.039 608.46 348.029 598.97C356.876 597.207 364.34 595.873 366.745 605.494ZM357.881 217.983C358.013 217.95 358.145 218.016 358.178 218.147C358.211 218.263 358.145 218.378 358.046 218.427C358.046 218.427 346.052 223.65 334.915 230.092C329.215 233.189 323.943 236.632 319.593 238.725C315.211 240.784 311.85 241.723 311.85 241.723C311.735 241.773 311.586 241.723 311.52 241.608C311.487 241.526 311.52 241.41 311.553 241.344C311.553 241.344 313.646 238.774 317.484 235.578C319.412 234.029 321.669 232.151 324.371 230.586C327.04 228.988 330.203 227.967 333.218 226.681C345.196 221.195 357.881 217.983 357.881 217.983ZM343.565 192.397C343.696 192.331 343.845 192.364 343.911 192.479C343.976 192.578 343.943 192.71 343.861 192.792C343.861 192.792 333.729 201.03 324.733 210.239C320.087 214.753 315.919 219.482 312.311 222.678C308.67 225.841 305.672 227.637 305.672 227.637C305.573 227.719 305.408 227.719 305.326 227.604C305.276 227.538 305.276 227.423 305.293 227.341C305.293 227.341 306.627 224.293 309.445 220.19C310.894 218.18 312.575 215.758 314.75 213.534C316.875 211.294 319.659 209.449 322.213 207.389C332.23 198.904 343.565 192.397 343.565 192.397ZM281.354 196.384C281.437 194.456 282.722 192.907 283.463 191.062C285.259 187.438 288.686 184.67 291.602 181.787C295.062 179.414 298.258 176.844 301.932 175.592C303.728 174.917 305.227 173.912 307.072 173.73C308.802 173.417 310.417 173.121 311.932 172.841C314.865 172.248 317.188 172.791 318.868 172.676C320.532 172.725 321.471 172.742 321.471 172.742C321.735 172.742 321.949 172.973 321.933 173.236C321.933 173.467 321.751 173.648 321.57 173.697C321.57 173.697 320.631 173.912 319 174.291C317.451 174.801 314.881 174.884 312.459 176.136C310.005 177.338 307.22 178.36 304.551 180.452C301.652 182.05 299.395 184.835 296.973 187.191C295.177 190.189 293.233 192.875 292.162 195.807C290.449 198.394 289.213 200.997 287.928 203.303C286.379 205.544 285.984 207.752 284.93 209.251C284.122 210.783 283.48 211.722 283.48 211.722C283.348 211.986 283.035 212.101 282.771 211.969C282.689 211.92 282.574 211.788 282.524 211.722C282.524 211.722 282.063 210.783 281.585 209.02C281.14 207.29 280.284 204.605 280.597 201.475C280.844 199.893 281.091 198.196 281.354 196.384ZM226.789 281.346C228.749 280.72 231.171 280.358 233.395 279.287C235.735 278.38 237.662 276.815 239.26 275.135C240.513 273.125 241.419 271.066 241.748 268.743C242.209 266.568 242.028 264.311 242.193 262.531C242.111 261.164 242.028 260.027 241.962 259.006C236.46 257.918 230.891 254.014 229.474 251.542C227.398 247.918 235.076 248.923 241.666 245.15C248.256 241.361 251.287 234.26 253.363 237.868C254.895 240.537 255.423 248.231 253.001 253.651C253.808 254.426 254.516 255.167 255.505 255.826C257.367 257.243 259.459 258.05 261.765 258.594C264.072 258.66 266.543 258.413 268.85 257.391C271.173 256.584 273.15 255.134 274.979 254.179C278.339 251.691 280.58 250.043 280.58 250.043C280.58 250.043 278.718 252.152 275.934 255.332C274.303 256.683 272.623 258.594 270.25 260.06C267.96 261.708 265.077 262.811 261.765 263.355C258.454 263.405 255.208 262.844 252.473 261.592C251.716 261.296 251.238 260.9 250.562 260.538C250.447 261.279 250.332 262.054 250.2 262.927C249.557 265.233 249.162 267.952 247.926 270.687C246.888 273.504 244.977 276.206 242.605 278.496C239.886 280.44 237.069 281.708 234.268 282.153C231.567 282.779 229.013 282.631 226.904 282.812C222.686 282.549 219.886 282.367 219.886 282.367C219.886 282.367 222.67 281.972 226.789 281.346ZM217.777 389.802C222.653 388.83 227.926 387.792 233.511 386.672C238.98 385.074 244.73 383.475 250.661 382.042C256.592 380.592 262.705 379.175 268.965 378.006C275.193 376.737 281.19 374.332 287.384 372.668C293.595 371.004 299.79 369.356 305.902 367.725C311.768 365.468 317.616 363.458 323.382 361.596C329.215 359.817 334.833 358.137 339.858 355.814C344.948 353.622 350.023 351.893 354.718 350.212C363.467 345.945 371.671 343.095 376.811 340.327C382.347 337.889 385.543 336.126 385.543 336.126C385.543 336.126 384.225 339.404 380.617 344.495C377.24 349.965 371.259 356.341 363.565 363.936C359.512 367.313 355.015 370.938 350.039 374.48C345.179 378.302 339.759 381.795 333.762 384.645C330.78 386.21 327.534 387.726 324.42 389.275C321.109 388.5 317.748 387.973 314.206 387.973C300.597 387.973 288.554 394.267 280.432 403.954C278.537 404.382 276.659 404.926 274.731 405.14C267.861 406.013 261.041 406.607 254.483 407.117C247.91 407.628 241.567 407.925 235.586 408.106C229.573 407.842 223.873 406.87 218.666 406.195C197.776 403.394 184.497 398.962 184.497 398.962C184.497 398.962 198.188 393.756 217.777 389.802ZM179.11 300.128C174.744 302.171 168.73 304.082 162.733 306.537C150.69 311.1 139.075 317.064 139.075 317.064C138.96 317.13 138.811 317.081 138.746 316.965C138.696 316.866 138.729 316.735 138.828 316.652C138.828 316.652 149.339 308.876 161.135 303.06C164.051 301.545 166.836 299.749 169.752 298.694C172.668 297.607 175.551 297.03 177.973 296.503C182.882 295.564 186.194 295.564 186.194 295.564C186.326 295.564 186.441 295.679 186.441 295.811C186.441 295.894 186.359 295.992 186.309 296.025C186.309 296.025 183.459 298.052 179.11 300.128ZM133.572 251.197C134.66 249.911 135.599 247.72 137.823 245.727C138.943 244.689 140.146 243.552 141.431 242.349C142.683 240.982 144.38 240.372 145.995 239.334C149.191 237.127 153.161 236.089 157.115 234.721C161.168 234.095 165.435 232.991 169.406 233.7C171.333 234.211 173.343 234.095 174.941 235.183C176.556 236.039 178.072 236.847 179.472 237.605C182.158 239.219 183.822 241.509 184.942 242.893C186.062 244.326 186.556 245.249 186.556 245.249C186.688 245.513 186.589 245.826 186.326 245.957C186.243 246.007 186.062 246.023 185.98 246.007C185.98 246.007 184.843 245.957 183.13 245.71C181.301 245.677 179.291 244.689 176.572 244.59C173.953 244.244 171.119 243.684 168.022 243.536C165.023 242.646 161.712 242.596 158.236 242.267C154.908 242.827 151.333 242.975 148.318 244.343C145.039 245.249 142.568 246.864 140.129 248.132C137.675 249.351 136.077 251.361 134.742 252.3C133.474 253.388 132.749 253.997 132.749 253.997C132.551 254.162 132.238 254.146 132.073 253.948C131.925 253.783 131.925 253.536 132.04 253.355C132.073 253.322 132.617 252.547 133.572 251.197ZM127.262 279.171C127.131 279.188 127.015 279.089 126.999 278.957C126.982 278.842 127.065 278.726 127.18 278.694C127.18 278.694 139.8 275.283 152.914 274.163C156.176 273.817 159.438 273.158 162.536 273.24C165.649 273.29 168.533 273.8 170.987 274.196C175.897 275.102 178.994 276.321 178.994 276.321C179.126 276.371 179.176 276.502 179.126 276.634C179.093 276.717 178.994 276.766 178.912 276.799C178.912 276.799 175.518 277.639 170.707 277.985C165.897 278.298 159.603 277.886 153.128 277.985C140.245 277.837 127.262 279.171 127.262 279.171ZM205.256 739.652C203.032 738.614 200.247 736.653 196.474 735.302C194.629 734.61 192.636 733.852 190.527 733.061C188.533 732.04 186.029 732.106 183.756 731.43C179.159 730.014 174.035 730.112 169.01 729.602C164.002 730.112 158.878 729.981 154.265 731.398C152.008 732.106 149.438 732.04 147.543 733.012C145.467 733.77 143.523 734.495 141.711 735.17C137.971 736.455 134.907 738.63 132.732 739.635C130.541 740.755 129.206 741.316 129.206 741.316C129.206 741.316 130.014 740.113 131.562 738.202C133.358 736.505 134.874 733.177 138.597 730.837C140.459 729.585 142.469 728.218 144.594 726.768C146.72 725.071 149.257 724.396 151.876 723.407C154.512 722.567 157.165 721.15 160.13 721.084C163.046 720.738 166.028 720.409 168.994 720.063C171.959 720.409 174.941 720.738 177.858 721.051C180.823 721.117 183.476 722.534 186.112 723.374C188.715 724.379 191.318 725.088 193.344 726.686C195.42 728.103 197.397 729.453 199.209 730.673C202.9 732.979 204.696 736.554 206.442 738.202C208.007 740.129 208.765 741.299 208.765 741.299C208.765 741.299 207.43 740.772 205.256 739.652ZM173.047 592.034C86.1075 540.846 140.887 443.181 140.887 443.181C163.508 401.499 186.145 425.322 236.163 489.608C239.919 494.436 242.671 499.147 244.961 503.777C244.384 504.205 243.676 504.469 243.33 505.144C243.33 505.144 242.226 507.253 240.463 509.527C238.865 512.08 236.147 515.194 233.082 518.209C230.331 521.603 226.558 523.646 223.971 525.672C221.27 527.6 219.474 528.885 219.474 528.885C219.474 528.885 221.533 528.111 224.63 526.99C227.678 525.738 232.226 524.602 235.949 521.998C239.919 519.774 243.824 517.237 246.509 514.782C247.564 513.959 248.173 513.398 248.832 512.805C265.489 565.41 195.997 602.447 173.047 592.034ZM254.467 715.713C251.007 718.481 244.763 718.283 239.755 718.316C238.025 718.316 235.059 715.153 234.895 713.225C234.763 711.578 237.481 708.925 239.508 708.019C243.923 706.059 248.849 705.284 253.297 703.406C257.746 701.512 261.897 698.843 266.164 696.503C266.922 697.212 267.664 697.887 268.421 698.563C263.874 704.411 260.085 711.215 254.467 715.713ZM277.318 728.383C276.165 728.333 274.995 728.3 273.842 728.251C273.842 722.666 273.71 717.064 273.875 711.496C274.056 705.812 274.55 700.161 274.929 694.048C265.818 692.22 258.372 690.869 251.024 689.089C248.602 688.496 246.444 686.799 241.155 684.031C250.793 684.031 257.367 683.125 263.594 684.229C273.496 685.943 276.873 682.071 276.247 672.762C275.967 668.594 276.198 664.393 276.198 660.258C269.608 656.996 263.116 653.783 256.625 650.587C256.889 649.829 257.152 649.055 257.4 648.28C262.062 648.28 266.972 649.203 271.288 648C274.979 646.979 278.01 643.536 281.008 641.427C283.249 643.717 285.506 646.929 288.571 648.857C291.47 650.669 295.21 651.114 298.587 652.136C298.653 653.272 298.703 654.426 298.769 655.562C294.156 656.946 289.559 658.33 283.134 660.258C282.755 666.798 282.326 674.492 281.882 682.664C295.292 685.168 308.472 676.782 322.196 685.877C309.412 697.623 294.287 687.936 282.162 694.46C277.598 704.873 285.621 718.168 277.318 728.383ZM304.354 670.341C300.548 673.537 296.726 676.749 292.92 679.929C291.256 678.545 289.608 677.128 287.944 675.712C290.432 671.444 292.92 667.194 295.408 662.96C298.39 665.464 301.372 667.902 304.354 670.341ZM331.554 726.356C326.019 727.444 318.819 728.234 314.502 725.549C304.057 719.008 294.897 710.408 285.21 702.648C285.984 701.479 286.758 700.292 287.516 699.139C293.299 702.385 298.769 706.537 304.93 708.662C312.097 711.133 319.939 711.594 327.386 713.39C330.681 714.197 333.762 716.059 336.958 717.443C335.195 720.573 333.877 725.895 331.554 726.356ZM377.124 735.566C373.813 745.764 361.901 750.459 351.736 749.075C346.234 748.334 340.484 746.884 338.227 741.859C338.095 741.579 337.996 741.299 337.881 741.003C331.356 722.023 354.273 718.069 365.954 716.932C376.63 715.911 380.073 726.587 377.124 735.566ZM362.61 670.785C375.263 666.172 385.362 667.935 389.135 675.58C392.133 681.643 386.795 696.767 379.266 701.956C370.814 707.772 361.44 709.848 352.395 703.769C344.158 698.266 339.396 690.654 343.911 680.292C337.37 679.55 331.867 678.941 326.068 678.265C336.777 670.291 346.003 663.635 354.784 656.485C355.591 655.843 353.664 651.823 353.384 650.818C357.634 647.934 361.457 645.331 365.312 642.745C364.686 641.773 364.076 640.817 363.434 639.845C356.382 640.224 350.814 641.839 347.486 650.109C344.586 657.325 338.622 662.235 329.775 658.577C332.642 655.002 335.179 651.246 337.798 647.671C325.623 643.651 323.333 637.473 328.572 623.354C332.23 632.3 334.981 639.021 338.26 647.028C341.159 643.157 344.174 639.565 347.898 636.929C353.763 632.744 362.709 632.481 370.403 631.608C371.457 631.492 374.488 637.885 374.39 641.196C374.258 644.557 371.408 647.852 370.847 654.805C378.953 653.437 387.042 651.856 395.214 650.801C398.18 650.422 401.293 651.213 404.358 651.46C403.27 654.063 402.859 657.391 400.964 659.138C392.364 667.161 381.853 669.303 371.424 664.097C362.56 659.665 359.134 663.125 355.311 672.054C358.804 671.477 360.798 671.428 362.61 670.785ZM488.628 718.843C485.811 718.267 482.137 716.768 477.475 716.306C475.152 716.01 472.68 715.73 470.044 715.4C467.474 714.824 464.64 715.598 461.807 715.466C456.139 715.219 450.307 716.883 444.392 717.789C441.575 718.794 438.741 719.783 435.957 720.771C433.058 721.529 430.652 723.176 428.098 724.461C425.743 725.977 422.843 726.719 420.981 728.448C418.889 729.997 416.895 731.447 415.067 732.798C411.277 735.467 408.592 738.91 406.483 740.739C404.424 742.732 403.155 743.803 403.155 743.803C403.155 743.803 403.748 742.255 404.984 739.652C406.565 737.246 407.389 733.111 410.931 729.388C412.661 727.476 414.539 725.368 416.533 723.143C418.428 720.689 421.097 719.222 423.749 717.311C426.484 715.598 429.021 713.291 432.333 712.319C435.496 711.084 438.725 709.848 441.938 708.579C445.348 708.069 448.758 707.558 452.136 707.031C455.48 706.224 458.858 706.981 462.054 707.097C465.233 707.426 468.397 707.393 471.165 708.563C473.932 709.486 476.535 710.359 478.957 711.166C483.784 712.566 486.931 715.927 489.452 717.196C491.841 718.827 493.076 719.832 493.076 719.832C493.076 719.832 491.379 719.552 488.628 718.843Z" fill="#030104"/>
<path d="M362.56 720.969C361.951 723.77 362.033 726.702 361.868 729.404C359.776 727.625 357.14 725.318 353.417 722.122C349.924 727.625 347.024 732.172 344.158 736.735C344.504 738.053 344.866 739.355 345.196 740.657C352.362 740.228 359.694 740.574 366.498 738.844C368.244 738.366 368.837 731.414 369.019 727.394C369.15 724.923 367.602 722.303 366.432 719.964C366.3 719.651 362.709 720.326 362.56 720.969Z" fill="#030104"/>
<path d="M363.483 694.971C369.282 691.659 374.291 687.03 379.596 682.829C376.894 680.456 374.192 678.084 373.467 677.441C362.593 677.112 356.053 679.336 355.97 687.952C355.954 690.391 362.511 695.531 363.483 694.971Z" fill="#030104"/>
<path d="M174.546 510.169C181.78 510.169 187.644 504.305 187.644 497.071C187.644 489.838 181.78 483.974 174.546 483.974C167.312 483.974 161.448 489.838 161.448 497.071C161.448 504.305 167.312 510.169 174.546 510.169Z" fill="#030104"/>
<path d="M403.831 136.513C404.803 138.177 405.61 139.726 406.516 141.34C411.327 149.94 415.446 157.997 418.708 165.921C424.111 179.002 427.225 192.018 427.752 207.208C427.934 212.595 427.934 218.164 427.406 224.243C427.126 227.752 426.665 231.245 426.319 234.738C423.667 259.846 419.268 284.773 415.989 309.815C415.495 313.555 415.643 317.311 415.495 321.068C415.446 322.55 415.297 324.017 415.297 325.499C415.297 375.04 443.981 425.322 475.662 464.929C478.99 469.08 482.302 473.1 485.679 477.005C488.661 480.481 491.61 483.858 494.592 487.088C494.971 487.532 495.399 488.01 495.778 488.439C488.628 480.629 492.945 445.158 494.246 433C496.322 413.658 500.82 394.695 505.565 375.847C513.341 344.792 519.849 313.308 523.061 281.494C522.04 281.857 520.985 282.269 519.882 282.433C516.735 283.323 513.39 283.405 510.095 283.685C503.505 283.817 497.096 283.01 492.401 282.153C487.738 281.099 484.625 280.39 484.625 280.39C484.625 280.39 487.788 280.506 492.516 280.671C497.245 280.638 503.522 280.226 509.519 278.957C512.468 278.133 515.433 277.507 517.839 276.255C520.458 275.366 522.27 273.718 523.704 272.73C523.753 272.647 523.786 272.647 523.836 272.581C524.626 262.647 525.071 252.679 525.104 242.679C523.424 243.42 521.71 244.063 519.865 244.359C516.718 245.249 513.374 245.331 510.079 245.611C503.489 245.743 497.08 244.936 492.368 244.079C487.722 243.025 484.608 242.316 484.608 242.316C484.608 242.316 487.771 242.432 492.5 242.596C497.228 242.498 503.505 242.069 509.486 240.817C512.418 239.993 515.4 239.367 517.822 238.115C520.425 237.226 522.237 235.578 523.671 234.59C524 234.029 524.264 233.716 524.643 233.469C524.808 233.486 524.906 233.206 525.005 232.942C524.972 231.772 525.022 230.603 524.972 229.433C522.962 169.826 516.685 94.139 459.204 60.0025C449.681 54.3515 435.512 50.3975 421.92 50.3975C403.386 50.3975 385.972 57.7948 383.27 78.3393C383.237 78.4711 383.27 78.6029 383.237 78.7182C382.907 81.4037 382.957 84.155 383.204 86.9558C383.55 90.7616 384.373 94.6332 385.56 98.5378C389.662 112.179 397.751 125.887 403.831 136.513ZM427.571 73.7592C427.72 73.7757 427.851 73.8251 427.983 73.924C427.983 73.924 429.466 75.0278 431.459 76.7742C432.481 77.6309 433.7 78.6523 434.87 79.7726C438 82.7546 443.206 86.3297 443.453 90.9922C443.75 96.0007 441.312 99.5428 436.336 96.429C431.904 93.6777 430.29 88.0596 429.054 83.3148C428.593 81.7497 428.23 80.2339 427.95 78.8995C427.275 76.3293 426.962 74.5006 426.962 74.5006C426.929 74.0722 427.192 73.7263 427.571 73.7592ZM411.343 83.7267C411.492 83.7431 411.623 83.8091 411.755 83.8914C411.755 83.8914 413.221 84.9788 415.231 86.7416C416.253 87.6148 417.472 88.6198 418.658 89.7401C421.772 92.7386 426.978 96.3137 427.242 100.976C427.522 105.968 425.084 109.51 420.125 106.413C415.709 103.662 414.078 98.0601 412.859 93.2987C412.381 91.7336 412.019 90.2179 411.739 88.8999C411.063 86.2968 410.767 84.501 410.767 84.501C410.684 84.0397 410.964 83.7102 411.343 83.7267Z" fill="#030104"/>
</g>
<defs>
<filter id="filter0_d_331_33" x="0" y="0" width="539.681" height="808" filterUnits="userSpaceOnUse" color-interpolation-filters="sRGB">
<feFlood flood-opacity="0" result="BackgroundImageFix"/>
<feColorMatrix in="SourceAlpha" type="matrix" values="0 0 0 0 0 0 0 0 0 0 0 0 0 0 0 0 0 0 127 0" result="hardAlpha"/>
<feOffset dy="4"/>
<feGaussianBlur stdDeviation="2"/>
<feComposite in2="hardAlpha" operator="out"/>
<feColorMatrix type="matrix" values="0 0 0 0 0 0 0 0 0 0 0 0 0 0 0 0 0 0 0.25 0"/>
<feBlend mode="normal" in2="BackgroundImageFix" result="effect1_dropShadow_331_33"/>
<feBlend mode="normal" in="SourceGraphic" in2="effect1_dropShadow_331_33" result="shape"/>
</filter>
</defs>
</svg>
