<svg width="150" height="226" viewBox="0 0 150 226" fill="none" xmlns="http://www.w3.org/2000/svg">
<path d="M149.983 214.858C148.892 205.777 138.856 204.747 133.022 205.372C126.81 181.981 148.478 147.119 149.752 138.86C151.122 129.99 143.41 78.3693 142.596 52.2315C141.758 25.3992 102.788 -4.22237 96.2813 0.499746C89.834 7.62911 105.567 17.2515 97.2853 25.5011C89.2853 33.4716 87.1991 38.8282 81.2586 47.8495C66.0396 70.9551 107.282 71.2438 107.282 71.2438C107.282 71.2438 75.0056 95.1658 67.8238 107.222C61.2098 118.326 58.4368 130.748 50.4558 141.219C32.2665 165.083 36.3656 206.691 36.3656 206.691C36.3656 206.691 1.90957 195.413 20.8723 156.076C35.3073 126.132 42.4176 81.9445 9.94201 93.3092C-2.62202 97.7064 12.7513 106.955 15.4043 109.918C24.2808 119.825 16.777 136.492 11.4281 146.129C-2.89637 171.936 -8.0967 198.975 22.0536 215.649C35.4502 223.056 53.5422 224.889 71.7515 225.158L118.087 225.291C133.351 226.05 150.617 223.196 149.983 214.858Z" fill="white"/>
</svg>
