<svg width="323" height="226" viewBox="0 0 323 226" fill="none" xmlns="http://www.w3.org/2000/svg">
<path d="M149.983 214.858C148.892 205.777 138.856 204.747 133.022 205.372C126.81 181.981 148.478 147.119 149.752 138.86C151.122 129.99 143.41 78.3693 142.596 52.2315C141.758 25.3992 102.788 -4.22237 96.2813 0.499746C89.834 7.62911 105.567 17.2515 97.2853 25.5011C89.2853 33.4716 87.1991 38.8282 81.2586 47.8495C66.0396 70.9551 107.282 71.2438 107.282 71.2438C107.282 71.2438 75.0056 95.1658 67.8238 107.222C61.2098 118.326 58.4368 130.748 50.4558 141.219C32.2665 165.083 36.3656 206.691 36.3656 206.691C36.3656 206.691 1.90957 195.413 20.8723 156.076C35.3073 126.132 42.4176 81.9445 9.94201 93.3092C-2.62202 97.7064 12.7513 106.955 15.4043 109.918C24.2808 119.825 16.777 136.492 11.4281 146.129C-2.89637 171.936 -8.0967 198.975 22.0536 215.649C35.4502 223.056 53.5422 224.889 71.7515 225.158L118.087 225.291C133.351 226.05 150.617 223.196 149.983 214.858Z" fill="white"/>
<path d="M207.72 164.664C199.187 164.664 192.744 162.488 188.392 158.136C184.125 153.784 181.651 147.768 180.968 140.088C180.712 137.187 181.992 135.736 184.808 135.736C186.003 135.736 186.899 136.077 187.496 136.76C188.179 137.443 188.691 138.424 189.032 139.704C190.056 151.139 196.285 156.856 207.72 156.856C220.349 156.856 226.664 149.816 226.664 135.736V77.624C226.664 74.808 227.987 73.4 230.632 73.4C233.277 73.4 234.6 74.808 234.6 77.624V135.736C234.6 144.696 232.467 151.779 228.2 156.984C223.933 162.104 217.107 164.664 207.72 164.664ZM281.882 163C279.151 163 277.786 161.592 277.786 158.776V124.6L250.906 78.52C250.053 76.984 249.839 75.7467 250.266 74.808C250.778 73.8693 251.845 73.4 253.466 73.4C254.831 73.4 255.898 73.656 256.666 74.168C257.519 74.5947 258.245 75.32 258.842 76.344L281.754 115.896L304.666 76.344C305.69 74.3813 307.354 73.4 309.658 73.4C311.365 73.4 312.474 73.912 312.986 74.936C313.583 75.8747 313.413 77.0693 312.474 78.52L285.85 124.6V158.776C285.85 161.592 284.527 163 281.882 163Z" fill="white"/>
</svg>
